<?xml version="1.0" encoding="UTF-8" standalone="no"?>
<!-- Created with Inkscape (http://www.inkscape.org/) -->

<svg
   width="550mm"
   height="550mm"
   viewBox="0 0 550 550"
   version="1.1"
   id="svg5"
   inkscape:version="1.4.2 (f4327f4, 2025-05-13)"
   sodipodi:docname="Mapping.svg"
   xml:space="preserve"
   xmlns:inkscape="http://www.inkscape.org/namespaces/inkscape"
   xmlns:sodipodi="http://sodipodi.sourceforge.net/DTD/sodipodi-0.dtd"
   xmlns="http://www.w3.org/2000/svg"
   xmlns:svg="http://www.w3.org/2000/svg"><sodipodi:namedview
     id="namedview7"
     pagecolor="#ffffff"
     bordercolor="#000000"
     borderopacity="0.25"
     inkscape:showpageshadow="2"
     inkscape:pageopacity="0.0"
     inkscape:pagecheckerboard="0"
     inkscape:deskcolor="#d1d1d1"
     inkscape:document-units="mm"
     showgrid="false"
     inkscape:zoom="0.25"
     inkscape:cx="724"
     inkscape:cy="922"
     inkscape:window-width="1920"
     inkscape:window-height="1129"
     inkscape:window-x="-8"
     inkscape:window-y="-8"
     inkscape:window-maximized="1"
     inkscape:current-layer="layer7"
     showguides="true"><sodipodi:guide
       position="274.99999,558.12684"
       orientation="-1,0"
       id="guide876"
       inkscape:locked="false"
       inkscape:label=""
       inkscape:color="rgb(0,134,229)" /><sodipodi:guide
       position="-268.18655,274.99999"
       orientation="0,1"
       id="guide880"
       inkscape:locked="false"
       inkscape:label=""
       inkscape:color="rgb(0,134,229)" /></sodipodi:namedview><defs
     id="defs2"><linearGradient
       id="linearGradient4781"
       inkscape:swatch="solid"><stop
         style="stop-color:#000000;stop-opacity:1;"
         offset="0"
         id="stop4779" /></linearGradient></defs><g
     inkscape:groupmode="layer"
     id="layer6"
     inkscape:label="Zone bateau"
     style="display:inline"><path
       style="opacity:1;fill:#c18124;fill-opacity:1;stroke:#c27b00;stroke-width:2;stroke-dasharray:8, 2;stroke-dashoffset:0;stroke-opacity:1"
       d="M 275.38993,0.92350726 C 369.2183,26.04291 549.67164,277.05223 549.67164,277.05223 l 0.73881,273.35822 -274.00343,0.47757 c 0,0 -121.60043,-75.4954 -176.942162,-140.94936 C 40.083794,339.70729 0.67542642,277.40485 0.67542642,277.40485 L 0.36940299,0.73880595 Z"
       id="path31178"
       sodipodi:nodetypes="ccccsccc" /></g><g
     inkscape:groupmode="layer"
     id="layer7"
     inkscape:label="Courbes niveau"
     inkscape:highlight-color="#000000"
     style="display:inline"><path
       style="display:inline;opacity:1;fill:none;fill-opacity:0.25;stroke:#280b0b;stroke-width:2.5;stroke-dasharray:none;stroke-dashoffset:0;stroke-opacity:1"
       d="m 453.07276,1.1082089 c 0,0 -3.69403,15.3302241 -5.54104,17.1772391 -1.84702,1.847015 -1.29291,17.361939 -0.92351,18.839551 0.36941,1.477612 -12.5597,15.514926 -12.5597,20.317165 0,4.802239 -17.17724,2.770523 -21.24068,7.203359 -4.06343,4.432835 -20.87126,-23.272389 -27.52052,-19.947762 -6.64925,3.324627 -24.38059,-1.477612 -26.96641,-3.324627 -2.58583,-1.847015 -1.84702,-4.063433 -16.62314,-16.623134 -14.77612,-12.559701 -4.06343,0.369403 -12.1903,3.69403 -8.12686,3.324627 -1.47761,4.432836 -5.17164,11.082089 -3.69403,6.649254 -2.95522,1.477612 -10.71269,7.38806 -7.75746,5.910448 3.32463,15.145522 3.32463,16.623134 0,1.477612 -4.87331,10.171709 -18.91063,10.541112 -8.0807,0.738805 -24.57841,-0.414221 -38.98513,-0.04482 -14.40672,0.369403 -3.30925,10.197961 -13.28313,15.369605 -0.57042,7.000092 -1.13765,14.98164 -12.45151,17.01879 -5.86217,1.05553 -11.56738,2.66777 -17.84723,5.62299 -6.27985,2.95522 -13.77929,-11.61989 -17.10392,-14.944507 -3.32462,-3.324633 -4.9994,-6.246575 -16.82029,-2.183145 -11.8209,4.06344 -21.83641,4.000059 -36.61253,9.171702 -14.77612,5.17164 -20.53807,1.07811 -29.03433,9.94378 -8.49627,8.86567 -0.9975,23.34142 -3.46929,38.68044 -2.95841,18.35876 -5.80225,6.23503 -16.884343,25.44398 -11.082089,19.20896 -29.967777,-17.19168 -42.158076,-8.326 -12.190296,8.86567 -2.409739,23.73592 -14.230635,25.21353 -11.820895,1.47762 -12.559702,-4.06343 -15.145522,-1.10821 -2.585821,2.95523 -23.27238805,13.66791 -23.27238805,13.66791 L 0,-0.00577192 Z"
       id="path31478"
       inkscape:label="Zone 40 mètres"
       sodipodi:nodetypes="cssssssssssssscsssssssssssccc" /><path
       style="display:inline;opacity:1;fill:none;fill-opacity:0;stroke:#2b1100;stroke-width:2.5;stroke-dasharray:none;stroke-dashoffset:0;stroke-opacity:1"
       d="m 550.34707,243.34825 -17.32163,-3.91811 c 0,0 -19.98939,-0.71255 -25.53044,-1.08195 -5.54104,-0.3694 -28.40371,-4.7728 -32.46714,-4.034 -1.00245,2.39482 -0.95003,10.5423 -9.08075,9.42972 -8.76843,-5.86843 -9.51369,10.31883 -20.32737,7.53756 l -13.06036,1.82845 -6.26899,9.14226 c 0,0 -3.39568,5.48536 -5.48533,8.61985 -3.18737,10.27764 -19.02035,22.21358 -19.32937,27.16556 -0.52242,8.35864 -3.65689,16.71728 -4.17931,19.32935 -0.52242,2.61207 12.27675,19.32935 13.32159,21.94142 1.04481,2.61207 2.35085,9.92586 6.00776,12.53796 3.65691,2.61207 20.37417,1.82843 24.03108,3.91808 3.58647,7.51717 19.91811,42.65823 12.27673,48.32337 -3.65691,1.56726 -7.57499,-0.52241 -12.79916,4.70173 -5.22415,5.22415 -9.14225,6.00778 -20.11296,13.844 -10.97071,7.83621 -27.68797,14.10518 -27.68797,14.10518 0,0 -19.06814,0.26122 -21.68021,0.26122 -2.61207,0 -20.63539,-0.52241 -25.33711,-1.56725 -4.70176,-1.04481 4.44052,-7.31381 -1.30604,-9.92588 -13.71818,-4.33812 -24.60029,0.34157 -32.38972,-6.26896 -6.79138,-5.74656 -3.1345,7.8362 -10.70949,15.15002 -6.44734,-2.83406 -13.60054,-0.85145 -36.83025,-5.22414 -2.61207,9.92587 -7.0526,-22.20265 -12.79916,-20.11297 -5.74656,2.08966 -55.19856,6.06344 -64.07961,-0.72794 -8.88105,-6.79141 -3.13449,-9.92587 -4.70173,-15.15002 -1.56724,-5.22417 -2.61207,-8.35863 -4.70173,-12.53797 -2.08966,-4.1793 -7.31381,-7.83621 -14.1052,-13.06036 -6.79139,-5.22414 -16.71727,-3.65691 -20.37417,-4.17933 -3.65691,-0.52239 -20.37418,-1.04481 -26.64315,0 -6.26898,1.04484 -9.40347,7.31382 -15.67245,10.97071 -6.268969,3.65691 -7.836219,7.83624 -7.836219,12.53797 0,4.70172 8.881059,7.83622 12.537959,9.40345 3.6569,1.56726 7.3138,6.7914 14.62761,15.67246 7.31381,8.88103 -3.6569,7.31379 -4.17932,14.62759 -0.52241,7.31382 1.19785,12.20569 0.15302,17.42984 -1.04483,5.22414 -1.11909,9.16082 -1.6415,16.47464 -0.52242,7.3138 1.6415,3.58265 -6.71714,9.32921 -8.343091,4.57059 3.03117,20.72764 -11.823534,18.09437 -5.224147,0 -4.179318,0 -9.403466,-0.52242 C 81.496693,486.8905 71.570815,505.17501 60.077691,500.99571 48.584569,496.81637 30.822468,499.95087 27.687978,495.77156 21.109908,490.94524 6.6068731,480.9622 0.52241471,458.6801 -0.64645522,462.12313 0,549.97209 0,549.97209 h 549.84148 z"
       id="path31884"
       inkscape:label="Zone 42-45 mètres"
       sodipodi:nodetypes="ccscccccccsssccsscssccccssssssssssssssccssccccc" /></g><g
     inkscape:groupmode="layer"
     id="layer3"
     inkscape:label="Zone de fouilles"
     inkscape:highlight-color="#1120ff"
     style="display:inline"><rect
       style="opacity:1;fill:none;fill-opacity:1;stroke:#0e00f7;stroke-width:2.693;stroke-dasharray:none;stroke-dashoffset:18.8976;stroke-opacity:1"
       id="rect8033"
       width="269.67328"
       height="243.03014"
       x="95.548241"
       y="67.434868" /></g><g
     inkscape:groupmode="layer"
     id="layer2"
     inkscape:label="Rochers enlevés"
     style="display:inline"><path
       id="path7918"
       style="opacity:1;fill:#d40000;fill-opacity:1;stroke:#c40000;stroke-width:1;stroke-dasharray:none;stroke-dashoffset:18.8976;stroke-opacity:1"
       d="m 153.29555,137.82466 c 0,0 -10.06779,4.38881 -11.41532,2.89802 -0.45315,-0.0593 -6.93335,-0.90382 -8.89507,-0.90382 -2.0317,0 -3.32452,8e-5 -7.57266,0.36948 -4.24812,0.36941 -2.21645,1.47754 -3.50935,3.13986 -1.29291,1.66231 -4.15297,6.51884 -5.26117,9.28936 -1.1082,2.77052 -0.83424,5.85609 -1.57303,9.7348 -0.73881,3.87873 -4.24814,8.12706 -5.72575,9.97407 -1.47761,1.84701 -2.21602,5.35596 -1.66192,7.38767 0.5541,2.03171 3.87871,7.94235 4.43281,9.97406 0.55411,2.03172 2.58592,5.17165 3.87883,7.94215 1.29291,2.77053 4.61728,6.46443 6.83369,8.49613 2.21642,2.03171 2.58571,1.47794 4.06332,1.47794 1.47762,0 11.08246,1.4773 16.43879,4.24781 5.35634,2.77051 7.75701,2.40109 10.52752,4.4328 2.77052,2.03172 1.29307,3.32506 2.95538,5.35678 1.66232,2.03171 1.8472,0.73872 6.46472,1.84691 4.61753,1.10821 8.86562,-0.5544 14.59136,-0.185 5.72573,0.36941 7.5727,-3.50856 8.8656,-4.61677 1.29291,-1.10821 1.36772,-16.36217 0.62891,-19.13268 -0.7388,-2.77052 -4.78348,-21.19013 -4.96818,-23.22184 0,0 -7.90636,-15.01536 -8.46046,-16.12356 -0.48092,-0.96183 0.14366,-6.20271 0.32504,-7.63778 l -10.84843,-7.02696 c 0,0 -5.54126,-1.84656 -5.54126,-4.80178 0,-0.31074 0.008,-0.65542 0.0217,-1.01647 z" /><path
       id="path2760"
       style="display:inline;opacity:1;fill:#d40000;fill-opacity:1;stroke:#c40000;stroke-width:1;stroke-dasharray:none;stroke-dashoffset:18.8976;stroke-opacity:1"
       d="m 303.51067,129.8913 c -2.26258,-0.0462 -4.8484,0.32328 -6.51071,0.50798 -3.32462,0.3694 -8.86561,2.58588 -11.08201,2.58588 -2.21641,0 -6.2796,1.84675 -10.34304,1.10795 -4.06343,-0.73881 -9.93283,-5.11184 -12.51865,-4.37304 -2.58583,0.7388 -2.95536,1.84682 -5.17178,3.69384 -2.21641,1.847 -4.43288,8.12697 -7.01869,9.60458 -0.49033,1.87054 -1.00144,3.48822 -1.49862,4.97179 0.75924,1.45417 2.45286,6.23377 3.43859,7.71236 2.21642,3.32463 -0.3694,5.91091 -2.2164,8.86613 -1.18825,1.90121 -1.6153,2.73261 -2.55334,3.67367 0.45017,1.03368 1.01995,2.17261 0.51315,2.32803 -0.0981,0.56463 -0.20033,0.98253 -0.31006,1.20199 l -0.22427,4.88394 8.80256,8.80256 5.84719,8.39536 c 0,0 4.0447,0.82088 6.26111,1.92908 2.21642,1.10821 6.97311,-0.17122 8.82014,1.30638 1.847,1.47762 4.70202,10.22366 11.35124,10.22366 6.64925,0 15.1825,0.019 21.83174,-2.56676 6.64926,-2.58582 7.38842,-5.86587 10.71305,-8.45168 3.32463,-2.58581 5.64934,-9.37752 6.01875,-15.28796 0.36942,-5.91042 1.84699,-12.5595 2.2164,-19.57813 0.36941,-7.01865 -5.5409,-10.3432 -6.27972,-13.29842 -0.7388,-2.95522 -1.10829,-8.12695 -4.80229,-11.82098 -3.69403,-3.69402 -9.97425,-1.47759 -10.71304,-4.43281 -0.36941,-1.4776 -2.30871,-1.93922 -4.5713,-1.9854 z"
       sodipodi:nodetypes="ssssssccssccccccsssssssssss" /><path
       style="display:inline;opacity:1;fill:#d40000;fill-opacity:1;stroke:#c40000;stroke-width:1;stroke-dasharray:none;stroke-dashoffset:18.8976;stroke-opacity:1"
       d="m 160.875,129.84514 c -2.58582,2.21642 -3.13992,7.75747 -3.13992,10.7127 0,2.95522 5.54104,4.80224 5.54104,4.80224 l 16.25373,10.52798 c 0,0 13.29851,2.95522 14.77612,2.95522 1.47761,0 1.10821,0.3694 7.01866,1.47761 5.91045,1.10821 9.60447,4.80224 13.66791,4.80224 4.06343,0 8.49627,1.84702 16.25373,1.84702 7.75746,0 11.82089,4.98693 14.77612,2.77051 2.95522,-2.21642 2.95523,-2.58581 4.80224,-5.54104 1.84701,-2.95522 4.43283,-5.54104 2.21641,-8.86567 -2.21641,-3.32462 -0.7388,-6.83395 -9.60447,-9.41977 -8.86568,-2.58582 -10.15858,-1.66232 -17.91604,-4.98695 -7.75747,-3.32462 -13.66792,-8.86567 -20.68658,-10.34328 -7.01866,-1.47761 -17.17723,-1.29291 -23.45708,-0.5541 -6.27986,0.7388 -11.08209,0.5541 -13.29851,-0.18471 -2.21642,-0.7388 -7.20336,0 -7.20336,0 z"
       id="path7819"
       sodipodi:nodetypes="csccssssssssssssc" /><path
       style="opacity:1;fill:#d40000;fill-opacity:1;stroke:#c20000;stroke-width:1;stroke-dasharray:none;stroke-dashoffset:18.8976;stroke-opacity:1"
       d="m 231.80037,194.49066 c 0,0 2.77052,5.54106 2.40112,6.27987 -0.36941,0.7388 -2.58583,5.91044 -7.38807,7.20335 -4.80223,1.29291 -10.52798,1.84701 -13.4832,1.84701 -2.95522,0 -5.54104,0.92351 -5.54104,0.92351 0,0 -14.26351,-0.8778 -14.63759,-1.84701 -1.03886,-2.69162 -0.64646,-6.0028 0.27705,-8.95803 0.92351,-2.95522 9.00419,-1.93936 10.2971,-3.97108 1.29291,-2.03172 1.47762,-2.58582 4.98694,-3.87873 3.50933,-1.29291 6.09515,-2.03172 7.94217,-2.03172 1.84701,0 2.03172,-0.5541 3.69403,-1.47761 3.67094,1.31276 6.88983,2.08443 7.57276,2.40112 2.77052,1.10821 3.87873,3.50932 3.87873,3.50932 z"
       id="path15007"
       sodipodi:nodetypes="cssscsssssccc" /><path
       style="opacity:1;fill:#d40000;fill-opacity:1;stroke:#c20000;stroke-width:1;stroke-dasharray:none;stroke-dashoffset:18.8976;stroke-opacity:1"
       d="m 194.08025,94.836832 c 1.56724,0 3.13449,-1.044829 6.53019,2.350868 3.39569,3.39569 3.39569,4.70173 4.44052,6.53018 1.04483,1.82845 -1.30604,4.17931 4.44052,5.48535 5.74657,1.30604 3.65691,3.6569 8.35864,2.61208 4.70173,-1.04483 5.74656,-1.30604 8.09743,-2.61208 2.35086,-1.30604 2.35086,-1.56724 4.96294,-3.39569 2.61207,-1.82845 2.35086,-1.56725 4.17931,-2.87329 1.82846,-1.30603 1.73611,-0.90493 3.56456,-0.90493 1.82845,0 1.78364,1.64374 3.35088,-0.1847 1.56725,-1.82846 1.4432,-0.2164 1.4432,-4.918128 0,-4.701733 -0.26121,-4.440525 -0.26121,-8.097429 0,-3.656902 -0.2612,-5.224145 -0.2612,-7.052599 0,-1.82845 -1.30604,-5.746562 -1.30604,-5.746562 0,0 -2.08966,-1.044829 -3.91811,-1.044829 -1.82845,0 -4.96294,-0.783622 -8.35864,-1.044829 -3.39569,-0.261207 -6.53018,-1.828451 -7.57501,-2.089658 -1.04483,-0.261207 -2.35087,-0.783622 -5.48535,-1.567246 -3.13449,-0.783622 -3.3957,-0.783622 -6.00777,-0.783622 -2.61208,0 -3.13449,0 -4.96294,0.522415 -1.82845,0.522417 -3.65691,1.044831 -5.48536,2.350868 -1.82845,1.306036 -6.00777,4.701733 -6.00777,4.701733 0,0 -0.2612,0 -1.30603,3.134487 -1.04483,3.134487 -1.30604,2.873279 -1.30604,5.224147 0,2.350866 -0.52241,3.395695 0,4.701733 0.52242,1.306037 1.04483,2.612073 1.04483,2.612073 z"
       id="path23465"
       sodipodi:nodetypes="csssssssssssscssssssscssscc" /></g><g
     inkscape:groupmode="layer"
     id="layer4"
     inkscape:label="Sculptures"
     inkscape:highlight-color="#ea10ff"
     style="display:inline"><circle
       style="opacity:1;fill:#ff00ff;fill-opacity:1;stroke:#ff00ff;stroke-width:0.610255;stroke-dasharray:none;stroke-dashoffset:18.8976;stroke-opacity:1"
       id="path11752"
       cx="168.11021"
       cy="214.0813"
       r="6.0573192"
       inkscape:label="Base" /><circle
       style="fill:#ff00ff;fill-opacity:1;stroke:#ff00ff;stroke-width:0.610255;stroke-dasharray:none;stroke-dashoffset:18.8976;stroke-opacity:1"
       id="path11752-2"
       cx="200.11108"
       cy="159.57661"
       r="6.0573192"
       inkscape:label="Tête" /><circle
       style="fill:#ff00ff;fill-opacity:1;stroke:#ff00ff;stroke-width:0.610255;stroke-dasharray:none;stroke-dashoffset:18.8976;stroke-opacity:1"
       id="path11752-2-7"
       cx="214.71564"
       cy="99.165985"
       r="6.0573192"
       inkscape:label="Corps" /></g><g
     inkscape:groupmode="layer"
     id="layer5"
     inkscape:label="Bois"
     inkscape:highlight-color="#09c200"
     style="display:inline"><path
       sodipodi:type="star"
       style="opacity:1;fill:#00ff00;fill-opacity:1;stroke:#00ff00;stroke-width:1;stroke-dasharray:none;stroke-dashoffset:18.8976;stroke-opacity:1"
       id="path23581"
       inkscape:flatsided="false"
       sodipodi:sides="3"
       sodipodi:cx="191.72014"
       sodipodi:cy="258.21268"
       sodipodi:r1="9.7542677"
       sodipodi:r2="4.8771338"
       sodipodi:arg1="1.3089969"
       sodipodi:arg2="2.3561945"
       inkscape:rounded="0"
       inkscape:randomized="0"
       d="m 194.24473,267.63458 -5.97325,-5.97325 -5.97324,-5.97324 8.1596,-2.18636 8.15961,-2.18636 -2.18636,8.1596 z"
       inkscape:transform-center-x="1.2622975"
       inkscape:transform-center-y="1.2622918"
       transform="translate(6.2798507,-14.406716)" /></g></svg>
